<svg width="24" height="24" viewBox="0 0 24 24" fill="none" xmlns="http://www.w3.org/2000/svg">
<path fill-rule="evenodd" clip-rule="evenodd" d="M12 1.75C6.47715 1.75 2 6.22715 2 11.75C2 16.7413 5.65686 20.8783 10.4375 21.6285V14.6406H7.89844V11.75H10.4375V9.54688C10.4375 7.04063 11.9304 5.65625 14.2146 5.65625C15.3087 5.65625 16.4531 5.85156 16.4531 5.85156V8.3125H15.1921C13.9499 8.3125 13.5625 9.08334 13.5625 9.87416V11.75H16.3359L15.8926 14.6406H13.5625V21.6285C18.3431 20.8783 22 16.7413 22 11.75C22 6.22715 17.5229 1.75 12 1.75Z" fill="#1877F2"/>
<path fill-rule="evenodd" clip-rule="evenodd" d="M15.8926 14.6406L16.3359 11.75H13.5625V9.87416C13.5625 9.08334 13.9499 8.3125 15.1921 8.3125H16.4531V5.85156C16.4531 5.85156 15.3087 5.65625 14.2146 5.65625C11.9304 5.65625 10.4375 7.04063 10.4375 9.54688V11.75H7.89844V14.6406H10.4375V21.6285C10.9466 21.7084 11.4684 21.75 12 21.75C12.5316 21.75 13.0534 21.7084 13.5625 21.6285V14.6406H15.8926Z" fill="white"/>
</svg>
