<?xml version="1.0" encoding="utf-8"?>
<!-- Generator: Adobe Illustrator 27.0.0, SVG Export Plug-In . SVG Version: 6.00 Build 0)  -->
<svg version="1.1" id="레이어_1" xmlns="http://www.w3.org/2000/svg" xmlns:xlink="http://www.w3.org/1999/xlink" x="0px"
	 y="0px" viewBox="0 0 2500 2500" style="enable-background:new 0 0 2500 2500;" xml:space="preserve">
<style type="text/css">
	.st0{fill:#FFE812;}
</style>
<g>
	<path class="st0" d="M2188.4,2041.8c0,81-65.6,146.6-146.6,146.6H458.2c-81,0-146.6-65.6-146.6-146.6V458.2
		c0-81,65.6-146.6,146.6-146.6h1583.5c81,0,146.6,65.6,146.6,146.6V2041.8z"/>
	<path d="M1250,575.5c-421.1,0-762.4,269.1-762.4,601.2c0,214.6,142.7,403,357.4,509.3c-11.7,40.3-75,259.1-77.6,276.3
		c0,0-1.5,12.9,6.8,17.8c8.4,4.9,18.2,1.1,18.2,1.1c24-3.4,278.2-181.9,322.2-212.9c44,6.2,89.2,9.5,135.4,9.5
		c421.1,0,762.4-269.1,762.4-601.2C2012.4,844.7,1671.1,575.5,1250,575.5L1250,575.5z"/>
	<path class="st0" d="M828.5,1386.5c-24.3,0-44-18.8-44-42v-261.3h-68.6c-23.8,0-43.2-19.3-43.2-43.1c0-23.7,19.4-43.1,43.2-43.1
		h225.2c23.8,0,43.2,19.3,43.2,43.1c0,23.7-19.4,43.1-43.2,43.1h-68.6v261.3C872.4,1367.7,852.7,1386.5,828.5,1386.5z M1214.2,1386
		c-18.3,0-32.4-7.4-36.6-19.4l-21.8-57l-134.1,0l-21.8,57.1c-4.2,12-18.2,19.4-36.6,19.4c-9.6,0-19.2-2.1-28-6.1
		c-12.1-5.6-23.8-21-10.4-62.5l105.2-276.9c7.4-21.1,29.9-42.8,58.6-43.4c28.7,0.6,51.2,22.4,58.7,43.5l105.2,276.8
		c13.4,41.6,1.7,57-10.4,62.5C1233.3,1383.9,1223.8,1386,1214.2,1386C1214.2,1386,1214.2,1386,1214.2,1386L1214.2,1386z
		 M1132.7,1231.6l-43.9-124.8l-43.9,124.8L1132.7,1231.6L1132.7,1231.6z M1323.3,1380.1c-23.2,0-42.2-18.1-42.2-40.3v-298.7
		c0-24.3,20.1-44,44.9-44c24.8,0,44.9,19.7,44.9,44v258.4h93.5c23.2,0,42.2,18.1,42.2,40.3s-18.9,40.3-42.2,40.3H1323.3z
		 M1567.7,1386c-24.3,0-44-19.7-44-44v-300.9c0-24.3,19.7-44,44-44s44,19.7,44,44v94.5l122.7-122.7c6.3-6.3,15-9.8,24.4-9.8
		c11,0,22,4.7,30.3,13c7.7,7.7,12.3,17.6,12.9,27.9c0.6,10.4-2.8,19.9-9.7,26.8L1692.1,1171l108.3,143.4c7.1,9.3,10.1,21,8.4,32.6
		c-1.6,11.6-7.7,22-17.1,29c-7.6,5.8-16.9,8.9-26.5,8.9c-13.8,0.1-26.9-6.4-35.1-17.5L1627,1230.7l-15.3,15.3v96
		C1611.7,1366.3,1592,1385.9,1567.7,1386L1567.7,1386z"/>
</g>
</svg>
