<svg width="24" height="24" viewBox="0 0 24 24" fill="none" xmlns="http://www.w3.org/2000/svg">
<path fill-rule="evenodd" clip-rule="evenodd" d="M7.05788 21C4.81682 21 3 19.1832 3 16.9421V7.05793C3 4.81682 4.81682 3 7.05788 3H16.9421C19.1832 3 21 4.81682 21 7.05793V16.9421C21 19.1832 19.1832 21 16.9421 21H7.05788Z" fill="#00DA55"/>
<path fill-rule="evenodd" clip-rule="evenodd" d="M16.0741 7H7.92593C6.86222 7 6 7.86222 6 8.92593V14.037C6 15.1007 6.86222 15.963 7.92593 15.963H10.8148L11.7464 17.5065C11.8615 17.6975 12.1385 17.6975 12.2536 17.5065L13.1852 15.963H16.0741C17.1378 15.963 18 15.1007 18 14.037V8.92593C18 7.86222 17.1378 7 16.0741 7Z" fill="white"/>
<path fill-rule="evenodd" clip-rule="evenodd" d="M14.9437 10.4399C15.2118 10.4399 15.4097 10.5433 15.5459 10.7199V10.5002H16.1481V10.5003V12.546C16.1481 13.2695 15.6078 13.5753 15.0592 13.5753V13.0068L15.0798 13.0067C15.3685 13.0067 15.5459 12.8517 15.5459 12.546V12.3477C15.4097 12.5245 15.2118 12.6277 14.9437 12.6277C14.3579 12.6277 13.929 12.1282 13.929 11.5338C13.929 10.9394 14.3579 10.4399 14.9437 10.4399ZM8.47062 9.78225V10.7026C8.60677 10.539 8.80884 10.4399 9.08514 10.4399C9.62558 10.4399 10.0711 10.9351 10.0711 11.5769C10.0711 12.2187 9.62558 12.714 9.08514 12.714C8.80884 12.714 8.60677 12.6148 8.47062 12.4511L8.47047 12.6537H7.85181L7.85195 9.78225H8.47062ZM12.5445 10.4399C13.1511 10.4399 13.6377 10.9351 13.6377 11.5769C13.6377 12.2187 13.1511 12.714 12.5445 12.714C11.9382 12.714 11.4515 12.2187 11.4515 11.5769C11.4515 10.9351 11.9382 10.4399 12.5445 10.4399ZM10.128 9.70374C10.6299 9.75485 11.0851 10.0719 11.0851 10.7408V12.6537H10.4666V10.7408C10.4666 10.4812 10.3405 10.3288 10.128 10.2858V9.70374ZM8.96144 11.0083C8.65344 11.0083 8.43033 11.2274 8.43033 11.5769C8.43033 11.9264 8.65344 12.1455 8.96144 12.1455C9.26944 12.1455 9.49255 11.9264 9.49255 11.5769C9.49255 11.2274 9.26944 11.0083 8.96144 11.0083ZM12.5445 11.027C12.2545 11.027 12.0314 11.246 12.0314 11.5769C12.0314 11.9079 12.2545 12.1268 12.5445 12.1268C12.8348 12.1268 13.058 11.9079 13.058 11.5769C13.058 11.246 12.8348 11.027 12.5445 11.027ZM15.0468 10.9932C14.7299 10.9932 14.5066 11.2123 14.5066 11.5338C14.5066 11.8554 14.7299 12.0744 15.0468 12.0744C15.3637 12.0744 15.5869 11.8554 15.5869 11.5338C15.5869 11.2123 15.3637 10.9932 15.0468 10.9932Z" fill="#00DA55"/>
</svg>
