<?xml version="1.0" encoding="utf-8"?>
<!-- Generator: Adobe Illustrator 27.0.0, SVG Export Plug-In . SVG Version: 6.00 Build 0)  -->
<svg version="1.1" id="Capa_1" xmlns="http://www.w3.org/2000/svg" xmlns:xlink="http://www.w3.org/1999/xlink" x="0px" y="0px"
	 viewBox="0 0 112.2 112.2" style="enable-background:new 0 0 112.2 112.2;" xml:space="preserve">
<style type="text/css">
	.st0{fill:#55ACEE;}
	.st1{fill:#F1F2F2;}
</style>
<g>
	<circle class="st0" cx="56.1" cy="56.1" r="41.7"/>
	<g>
		<path class="st1" d="M81.6,44.4c-1.8,0.8-3.7,1.3-5.7,1.6c2.1-1.2,3.6-3.2,4.4-5.5c-1.9,1.1-4.1,2-6.3,2.4
			c-1.8-1.9-4.4-3.1-7.3-3.1c-5.5,0-10,4.5-10,10c0,0.8,0.1,1.5,0.3,2.3c-8.3-0.4-15.6-4.4-20.5-10.4c-0.9,1.5-1.3,3.2-1.3,5
			c0,3.5,1.8,6.5,4.4,8.3c-1.6-0.1-3.2-0.5-4.5-1.2c0,0,0,0.1,0,0.1c0,4.8,3.4,8.9,8,9.8c-0.8,0.2-1.7,0.3-2.6,0.3
			c-0.6,0-1.3-0.1-1.9-0.2c1.3,4,4.9,6.8,9.3,6.9c-3.4,2.7-7.7,4.3-12.4,4.3c-0.8,0-1.6,0-2.4-0.1c4.4,2.8,9.6,4.5,15.3,4.5
			c18.3,0,28.3-15.2,28.3-28.3c0-0.4,0-0.9,0-1.3C78.6,48.1,80.3,46.4,81.6,44.4L81.6,44.4z"/>
	</g>
</g>
</svg>
