<svg width="24" height="24" viewBox="0 0 24 24" fill="none" xmlns="http://www.w3.org/2000/svg">
<path fill-rule="evenodd" clip-rule="evenodd" d="M7.05788 21C4.81682 21 3 19.1832 3 16.9421V7.05793C3 4.81682 4.81682 3 7.05788 3H16.9421C19.1832 3 21 4.81682 21 7.05793V16.9421C21 19.1832 19.1832 21 16.9421 21H7.05788Z" fill="#666666"/>
<circle cx="12" cy="12" r="5.625" stroke="white" stroke-width="0.75"/>
<path d="M15.125 12C15.125 13.6024 14.7453 15.0348 14.151 16.0537C13.5512 17.0818 12.7778 17.625 12 17.625C11.2222 17.625 10.4488 17.0818 9.84904 16.0537C9.25466 15.0348 8.875 13.6024 8.875 12C8.875 10.3976 9.25466 8.96525 9.84904 7.94631C10.4488 6.91817 11.2222 6.375 12 6.375C12.7778 6.375 13.5512 6.91817 14.151 7.94631C14.7453 8.96525 15.125 10.3976 15.125 12Z" stroke="white" stroke-width="0.75"/>
<path d="M6.5 10.375H17.5" stroke="white" stroke-width="0.75"/>
<path d="M12 6.5V17.5" stroke="white" stroke-width="0.75"/>
<path d="M6.5 13.625H17.5" stroke="white" stroke-width="0.75"/>
</svg>
