<svg width="24" height="24" viewBox="0 0 24 24" fill="none" xmlns="http://www.w3.org/2000/svg">
<path fill-rule="evenodd" clip-rule="evenodd" d="M21.582 7.15536C21.352 6.28922 20.6743 5.60718 19.8139 5.3757C18.2541 4.95502 12 4.95502 12 4.95502C12 4.95502 5.7458 4.95502 4.18614 5.3757C3.32557 5.60718 2.64784 6.28922 2.41784 7.15536C2 8.72513 2 12.0005 2 12.0005C2 12.0005 2 15.2758 2.41784 16.8456C2.64784 17.7117 3.32557 18.3938 4.18614 18.6254C5.7458 19.0459 12 19.0459 12 19.0459C12 19.0459 18.2541 19.0459 19.8139 18.6254C20.6743 18.3938 21.352 17.7117 21.582 16.8456C22 15.2758 22 12.0005 22 12.0005C22 12.0005 22 8.72513 21.582 7.15536Z" fill="#FF0000"/>
<path fill-rule="evenodd" clip-rule="evenodd" d="M9.95459 14.9742L15.1819 12.0006L9.95459 9.02673V14.9742Z" fill="white"/>
</svg>
